<?xml version="1.0" standalone="no"?><!-- Generator: Gravit.io --><svg xmlns="http://www.w3.org/2000/svg" xmlns:xlink="http://www.w3.org/1999/xlink" style="isolation:isolate" viewBox="0 0 283.465 85.039" width="283.465" height="85.039"><g><path d=" M 28 15 L 28 19 L 12 19 L 12 31 L 28 31 L 28 35 L 12 35 L 12 35 Q 10 35 9 34 L 9 34 L 9 34 Q 8 33 8 31 L 8 31 L 8 19 L 8 19 Q 8 17 9 16 L 9 16 L 9 16 Q 10 15 12 15 L 12 15 L 28 15 L 28 15 Z  M 54 23 L 54 15 L 58 15 L 58 35 L 54 35 L 54 27 L 42 27 L 42 35 L 37 35 L 37 15 L 42 15 L 42 23 L 54 23 L 54 23 Z  M 72 15 L 72 15 L 84 15 L 84 15 Q 86 15 87 16 L 87 16 L 87 16 Q 89 17 89 19 L 89 19 L 89 35 L 84 35 L 84 28 L 73 28 L 73 35 L 68 35 L 68 19 L 68 19 Q 68 17 69 16 L 69 16 L 69 16 Q 71 15 72 15 Z  M 73 19 L 73 24 L 84 24 L 84 19 L 73 19 L 73 19 Z  M 103 15 L 103 15 L 115 15 L 115 15 Q 116 15 117 16 L 117 16 L 117 16 Q 119 17 119 19 L 119 19 L 119 31 L 119 31 Q 119 33 117 34 L 117 34 L 117 34 Q 116 35 115 35 L 115 35 L 103 35 L 103 35 Q 101 35 100 34 L 100 34 L 100 34 Q 98 33 98 31 L 98 31 L 98 19 L 98 19 Q 98 17 100 16 L 100 16 L 100 16 Q 101 15 103 15 Z  M 114 19 L 103 19 L 103 31 L 114 31 L 114 19 L 114 19 Z  M 149 19 L 149 19 L 149 21 L 144 21 L 144 19 L 133 19 L 133 23 L 144 23 L 144 23 Q 146 23 147 24 L 147 24 L 147 24 Q 149 25 149 27 L 149 27 L 149 31 L 149 31 Q 149 33 147 34 L 147 34 L 147 34 Q 146 35 144 35 L 144 35 L 133 35 L 133 35 Q 131 35 130 34 L 130 34 L 130 34 Q 128 33 128 31 L 128 31 L 128 29 L 133 29 L 133 31 L 144 31 L 144 27 L 133 27 L 133 27 Q 131 27 130 26 L 130 26 L 130 26 Q 128 25 128 23 L 128 23 L 128 19 L 128 19 Q 128 17 130 16 L 130 16 L 130 16 Q 131 15 133 15 L 133 15 L 144 15 L 144 15 Q 146 15 147 16 L 147 16 L 147 16 Q 149 17 149 19 Z  M 181 25 L 184 15 L 189 15 L 181 35 L 178 35 L 173 22 L 172 27 L 169 35 L 165 35 L 158 15 L 162 15 L 167 27 L 168 25 L 171 15 L 175 15 L 180 27 L 181 25 L 181 25 Z  M 198 15 L 217 15 L 217 19 L 203 19 L 203 23 L 214 23 L 214 27 L 203 27 L 203 31 L 217 31 L 217 35 L 198 35 L 198 15 L 198 15 Z  M 247 19 L 247 19 L 247 21 L 242 21 L 242 19 L 231 19 L 231 23 L 243 23 L 243 23 Q 244 23 246 24 L 246 24 L 246 24 Q 247 25 247 27 L 247 27 L 247 31 L 247 31 Q 247 33 246 34 L 246 34 L 246 34 Q 244 35 243 35 L 243 35 L 231 35 L 231 35 Q 229 35 228 34 L 228 34 L 228 34 Q 226 33 226 31 L 226 31 L 226 29 L 231 29 L 231 31 L 242 31 L 242 27 L 231 27 L 231 27 Q 229 27 228 26 L 228 26 L 228 26 Q 226 25 226 23 L 226 23 L 226 19 L 226 19 Q 226 17 228 16 L 228 16 L 228 16 Q 229 15 231 15 L 231 15 L 243 15 L 243 15 Q 244 15 246 16 L 246 16 L 246 16 Q 247 17 247 19 Z  M 256 19 L 256 15 L 276 15 L 276 19 L 268 19 L 268 35 L 263 35 L 263 19 L 256 19 L 256 19 Z " fill-rule="evenodd" fill="rgb(255,255,255)"/><path d=" M 179 54 L 179 54 L 179 55 L 176 55 L 176 54 L 169 54 L 169 56 L 177 56 L 177 56 Q 178 56 179 57 L 179 57 L 179 57 Q 179 58 179 59 L 179 59 L 179 62 L 179 62 Q 179 63 179 63 L 179 63 L 179 63 Q 178 64 177 64 L 177 64 L 169 64 L 169 64 Q 168 64 167 64 L 167 64 L 167 64 Q 166 63 166 62 L 166 62 L 166 60 L 169 60 L 169 61 L 176 61 L 176 59 L 169 59 L 169 59 Q 168 59 167 58 L 167 58 L 167 58 Q 166 58 166 56 L 166 56 L 166 54 L 166 54 Q 166 53 167 52 L 167 52 L 167 52 Q 168 51 169 51 L 169 51 L 177 51 L 177 51 Q 178 51 179 52 L 179 52 L 179 52 Q 179 53 179 54 Z  M 185 64 L 185 51 L 195 51 L 195 51 Q 196 51 197 52 L 197 52 L 197 52 Q 198 53 198 54 L 198 54 L 198 57 L 198 57 Q 198 58 197 59 L 197 59 L 197 59 Q 196 60 195 60 L 195 60 L 187 60 L 187 60 Q 188 60 188 60 L 188 60 L 188 60 Q 188 60 187 60 L 187 60 L 187 64 L 185 64 L 185 64 Z  M 195 54 L 187 54 L 187 57 L 195 57 L 195 54 L 195 54 Z  M 205 51 L 205 51 L 213 51 L 213 51 Q 214 51 215 52 L 215 52 L 215 52 Q 216 53 216 54 L 216 54 L 216 64 L 213 64 L 213 60 L 205 60 L 205 64 L 203 64 L 203 54 L 203 54 Q 203 53 203 52 L 203 52 L 203 52 Q 204 51 205 51 Z  M 205 54 L 205 57 L 213 57 L 213 54 L 205 54 L 205 54 Z  M 234 51 L 234 54 L 224 54 L 224 61 L 234 61 L 234 64 L 224 64 L 224 64 Q 223 64 222 64 L 222 64 L 222 64 Q 221 63 221 62 L 221 62 L 221 54 L 221 54 Q 221 53 222 52 L 222 52 L 222 52 Q 223 51 224 51 L 224 51 L 234 51 L 234 51 Z  M 240 51 L 252 51 L 252 54 L 243 54 L 243 56 L 250 56 L 250 59 L 243 59 L 243 61 L 252 61 L 252 64 L 240 64 L 240 51 L 240 51 Z  M 270 54 L 270 54 L 270 55 L 267 55 L 267 54 L 260 54 L 260 56 L 268 56 L 268 56 Q 269 56 269 57 L 269 57 L 269 57 Q 270 58 270 59 L 270 59 L 270 62 L 270 62 Q 270 63 269 63 L 269 63 L 269 63 Q 269 64 268 64 L 268 64 L 260 64 L 260 64 Q 259 64 258 64 L 258 64 L 258 64 Q 257 63 257 62 L 257 62 L 257 60 L 260 60 L 260 61 L 267 61 L 267 59 L 260 59 L 260 59 Q 259 59 258 58 L 258 58 L 258 58 Q 257 58 257 56 L 257 56 L 257 54 L 257 54 Q 257 53 258 52 L 258 52 L 258 52 Q 259 51 260 51 L 260 51 L 268 51 L 268 51 Q 269 51 269 52 L 269 52 L 269 52 Q 270 53 270 54 Z  M 125 54 L 125 54 L 125 55 L 122 55 L 122 54 L 114 54 L 114 61 L 122 61 L 122 59 L 119 59 L 119 57 L 125 57 L 125 62 L 125 62 Q 125 63 124 63 L 124 63 L 124 63 Q 123 64 122 64 L 122 64 L 114 64 L 114 64 Q 113 64 112 64 L 112 64 L 112 64 Q 111 63 111 62 L 111 62 L 111 54 L 111 54 Q 111 53 112 52 L 112 52 L 112 52 Q 113 51 114 51 L 114 51 L 122 51 L 122 51 Q 123 51 124 52 L 124 52 L 124 52 Q 125 53 125 54 Z  M 97 51 L 104 60 L 104 51 L 107 51 L 107 64 L 104 64 L 97 55 L 97 64 L 94 64 L 94 51 L 97 51 L 97 51 Z  M 23 56 L 23 51 L 26 51 L 26 64 L 23 64 L 23 59 L 15 59 L 15 64 L 12 64 L 12 51 L 15 51 L 15 56 L 23 56 L 23 56 Z  M 34 51 L 34 51 L 42 51 L 42 51 Q 43 51 44 52 L 44 52 L 44 52 Q 45 53 45 54 L 45 54 L 45 64 L 42 64 L 42 60 L 34 60 L 34 64 L 31 64 L 31 54 L 31 54 Q 31 53 32 52 L 32 52 L 32 52 Q 33 51 34 51 Z  M 34 54 L 34 57 L 42 57 L 42 54 L 34 54 L 34 54 Z  M 63 51 L 63 54 L 53 54 L 53 61 L 63 61 L 63 64 L 53 64 L 53 64 Q 52 64 51 64 L 51 64 L 51 64 Q 50 63 50 62 L 50 62 L 50 54 L 50 54 Q 50 53 51 52 L 51 52 L 51 52 Q 52 51 53 51 L 53 51 L 63 51 L 63 51 Z  M 76 54 L 78 51 L 81 51 L 81 52 L 77 58 L 81 63 L 81 64 L 78 64 L 74 59 L 71 59 L 71 64 L 68 64 L 68 51 L 71 51 L 71 56 L 74 56 L 76 54 L 76 54 Z  M 89 64 L 86 64 L 86 51 L 89 51 L 89 64 L 89 64 Z " fill-rule="evenodd" fill="rgb(255,255,255)"/><path d=" M 157 64 L 145 71 L 133 64 L 133 51 L 145 44 L 157 51 L 157 64 Z  M 142 57 L 140 58 L 140 58 L 141 59 L 143 58 L 143 58 L 143 58 L 142 57 L 142 57 L 142 57 Z  M 146 56 L 145 55 L 144 56 L 145 57 L 146 56 L 146 56 L 146 56 Z  M 147 58 L 149 59 L 150 58 L 148 57 L 147 58 L 147 58 L 147 58 L 147 58 L 147 58 Z  M 145 59 L 149 61 L 152 59 L 153 60 L 153 64 L 155 63 L 155 59 L 154 58 L 155 58 L 155 52 L 153 51 L 153 57 L 152 57 L 152 57 L 150 56 L 151 55 L 151 50 L 149 49 L 149 54 L 148 55 L 145 53 L 142 55 L 141 54 L 141 49 L 139 50 L 139 55 L 140 56 L 138 57 L 137 57 L 137 51 L 135 52 L 135 58 L 136 58 L 136 58 L 135 59 L 135 63 L 137 64 L 137 60 L 138 59 L 141 61 L 145 59 L 145 59 L 145 59 Z " fill-rule="evenodd" fill="rgb(255,255,255)"/></g></svg>